# xmcd
#
# Track frame offsets:
#	150
#	12082
#	23735
#	36347
#	46612
#	60815
#	75215
#	87925
#	102197
#	117532
#	129837
#	141720
#	153707
#	164017
#	176130
#	188587
#
# Disc length: 2694
#
# Revision: 2
# Processed by: cddbd v1.5.1PL0 Copyright (c) Steve Scherf et al.
# Submitted via: EasyCDDAExtractor 6.0.0.1
# Normalized: r1:DSETVAR1
#
DISCID=c60a8410
DTITLE=Various Artist - Take me home , country roads cd 1
DYEAR=1994
DGENRE=Country
TTITLE0=Bobby Bare - Alabama Rose
TTITLE1=Dave Dudley - Get me back to tennesee
TTITLE2=Roy Baham - Linda's red dress
TTITLE3=Norville Dollar - what makes me feel so blue
TTITLE4=Freddy Quinn - oh lonesmoe me
TTITLE5=Billy Grammer - the hour of separation
TTITLE6=Ferlin Husky - i could sing all night
TTITLE7=Rick Johnson - if you are going to tulsa
TTITLE8=Bobby Bare - leavin on a jet plane
TTITLE9=Dave Dudley - texas ruby
TTITLE10=Freddy Quinn - some broken hearts never mend
TTITLE11=Ferlin Husky - my home town
TTITLE12=George Kent - running with the wind
TTITLE13=David Price - the lonesome truck driver's waltz
TTITLE14=Buddy Meredith - a new girl in town
TTITLE15=Freddy Quinn - green green grass of home
EXTD=
EXTT0=
EXTT1=
EXTT2=
EXTT3=
EXTT4=
EXTT5=
EXTT6=
EXTT7=
EXTT8=
EXTT9=
EXTT10=
EXTT11=
EXTT12=
EXTT13=
EXTT14=
EXTT15=
PLAYORDER=
